<svg width="43" height="40" viewBox="0 0 43 40" fill="none" xmlns="http://www.w3.org/2000/svg">
<path fill-rule="evenodd" clip-rule="evenodd" d="M21.5693 40C33.3146 40 42.836 31.0457 42.836 20C42.836 8.95431 33.3146 0 21.5693 0C9.82401 0 0.302612 8.95431 0.302612 20C0.302612 31.0457 9.82401 40 21.5693 40ZM28.2038 9.31684C28.5267 8.23805 27.4135 7.60013 26.3968 8.2813L12.2046 17.7896C11.1021 18.5283 11.2755 20 12.4651 20H16.2023V19.9728H23.486L17.5512 21.9421L14.9348 30.6832C14.6119 31.762 15.725 32.3999 16.7418 31.7187L30.934 22.2105C32.0365 21.4718 31.863 20 30.6735 20H25.0061L28.2038 9.31684Z" fill="#47AB5D"/>
</svg>
