<svg width="43" height="40" viewBox="0 0 43 40" fill="none" xmlns="http://www.w3.org/2000/svg">
<path d="M27.2515 1.05386L23.0694 0L19.5451 12.3696L16.3633 1.20224L12.1811 2.2561L15.6189 14.3216L7.05624 6.26898L3.9947 9.14817L13.3868 17.981L1.69043 15.0336L0.569824 18.9666L13.3496 22.187C13.2033 21.5935 13.1259 20.9751 13.1259 20.3397C13.1259 15.8421 17.0028 12.1961 21.7853 12.1961C26.5677 12.1961 30.4446 15.8421 30.4446 20.3397C30.4446 20.971 30.3682 21.5856 30.2237 22.1756L41.8381 25.1023L42.9587 21.1693L30.1281 17.9361L41.8253 14.9885L40.7046 11.0555L27.8745 14.2885L36.4371 6.23592L33.3756 3.35673L24.1137 12.067L27.2515 1.05386Z" fill="#47AB5D"/>
<path d="M30.2126 22.2213C29.854 23.6469 29.097 24.9276 28.0583 25.9537L36.4725 33.8668L39.5341 30.9876L30.2126 22.2213Z" fill="#47AB5D"/>
<path d="M27.9731 26.0366C26.9219 27.0463 25.5935 27.7998 24.1038 28.1881L27.1655 38.9341L31.3476 37.8802L27.9731 26.0366Z" fill="#47AB5D"/>
<path d="M23.9478 28.2274C23.2566 28.3945 22.5321 28.4833 21.7856 28.4833C20.9857 28.4833 20.2112 28.3813 19.4759 28.1904L16.4114 38.9462L20.5935 40L23.9478 28.2274Z" fill="#47AB5D"/>
<path d="M19.3279 28.1507C17.861 27.7431 16.5562 26.98 15.5264 25.9674L7.09155 33.8999L10.1531 36.7791L19.3279 28.1507Z" fill="#47AB5D"/>
<path d="M15.456 25.8973C14.4439 24.8783 13.7067 23.6147 13.3558 22.2111L1.70337 25.1474L2.82396 29.0804L15.456 25.8973Z" fill="#47AB5D"/>
</svg>
