<svg width="40" height="38" viewBox="0 0 40 38" fill="none" xmlns="http://www.w3.org/2000/svg">
<path d="M30.0568 16.2564C29.497 16.7861 29.0683 17.4253 28.8013 18.1285C28.5342 18.8318 28.4354 19.5818 28.5118 20.3251L28.4852 20.3001C28.5638 21.175 28.4382 22.0555 28.1175 22.8802C27.7969 23.7047 27.2888 24.4536 26.6286 25.0745C25.9684 25.6953 25.1721 26.1733 24.2952 26.4747C23.4184 26.7763 22.4821 26.8944 21.5518 26.8205L21.5784 26.8455C20.4656 26.7481 19.3479 26.9758 18.3776 27.4976C17.4074 28.0195 16.632 28.8101 16.1571 29.7616C15.6822 30.7131 15.5308 31.7791 15.7237 32.8145C15.9168 33.8498 16.4445 34.804 17.2352 35.5469C18.0259 36.2898 19.0409 36.7853 20.1419 36.9657C21.2431 37.1463 22.3765 37.0029 23.3878 36.5555C24.3992 36.1079 25.239 35.3781 25.7931 34.4652C26.3471 33.5523 26.5883 32.501 26.4837 31.4545L26.5118 31.4795C26.4332 30.6046 26.5586 29.7241 26.8793 28.8994C27.2 28.0748 27.7082 27.326 28.3683 26.705C29.0286 26.0842 29.8249 25.6063 30.7017 25.3048C31.5786 25.0033 32.5148 24.8852 33.4452 24.9591L33.4171 24.9341C34.3261 25.0109 35.2411 24.8707 36.0773 24.5265C36.9133 24.1823 37.6436 23.6451 38.2002 22.9649C38.7567 22.2847 39.1219 21.4832 39.2613 20.635C39.4009 19.7867 39.3105 18.919 38.9985 18.1122C38.6866 17.3056 38.1631 16.586 37.4767 16.0203C36.7903 15.4545 35.9631 15.0608 35.0719 14.8758C34.1806 14.6908 33.254 14.7202 32.3781 14.9615C31.5022 15.2029 30.7054 15.6483 30.0612 16.2564H30.0568Z" fill="#47AB5D"/>
<path d="M19.1602 23.5701L19.1321 23.5451C19.9228 23.6199 20.7213 23.5287 21.47 23.2778C22.2186 23.0269 22.8986 22.6228 23.4608 22.0946C24.0228 21.5663 24.4532 20.927 24.7204 20.2232C24.9878 19.5193 25.0854 18.7685 25.0064 18.0248L25.0345 18.0498C24.9559 17.1748 25.0814 16.2944 25.402 15.4697C25.7226 14.6451 26.2309 13.8963 26.891 13.2753C27.5512 12.6546 28.3475 12.1766 29.2243 11.8751C30.1013 11.5735 31.0374 11.4555 31.9678 11.5294L31.9398 11.5044C33.0527 11.6027 34.1707 11.3757 35.1415 10.8544C36.1123 10.3332 36.8884 9.54294 37.364 8.5916C37.8396 7.64026 37.9916 6.57409 37.7993 5.53851C37.607 4.50292 37.0797 3.54837 36.2891 2.80501C35.4988 2.06166 34.4837 1.5657 33.3826 1.38481C32.2814 1.20391 31.1478 1.34686 30.1361 1.79418C29.1245 2.24148 28.2843 2.97138 27.73 3.88431C27.1756 4.79722 26.9343 5.84872 27.0388 6.89537L27.0123 6.86898C27.091 7.74396 26.9657 8.62456 26.6452 9.44929C26.3247 10.274 25.8164 11.023 25.1563 11.644C24.4961 12.2648 23.6996 12.7428 22.8227 13.0442C21.9456 13.3456 21.0093 13.4634 20.0789 13.3894L20.1055 13.4158C19.3148 13.3409 18.5161 13.4322 17.7676 13.683C17.019 13.9338 16.3389 14.338 15.7768 14.8663C15.2146 15.3945 14.7843 16.0338 14.517 16.7377C14.2498 17.4415 14.1521 18.1923 14.2312 18.936L14.2046 18.911C14.2829 19.7859 14.1572 20.6663 13.8365 21.4909C13.5157 22.3153 13.0076 23.0641 12.3475 23.6849C11.6873 24.3057 10.8911 24.7836 10.0144 25.0853C9.13764 25.3869 8.20149 25.5051 7.27121 25.4314L7.2978 25.4564C6.18486 25.3581 5.06676 25.5851 4.09601 26.1064C3.12528 26.6277 2.34916 27.4178 1.87353 28.3692C1.39788 29.3206 1.24586 30.3868 1.43822 31.4223C1.63058 32.4579 2.15795 33.4125 2.94838 34.1558C3.73882 34.8992 4.75383 35.3951 5.855 35.576C6.95617 35.7569 8.08987 35.6139 9.10147 35.1666C10.1131 34.7193 10.9533 33.9895 11.5076 33.0766C12.0619 32.1635 12.3033 31.1121 12.1987 30.0655L12.2268 30.0905C12.1482 29.2155 12.2738 28.3351 12.5944 27.5104C12.915 26.6858 13.4232 25.9369 14.0833 25.316C14.7436 24.6952 15.5399 24.2172 16.4166 23.9158C17.2936 23.6142 18.2297 23.4962 19.1602 23.5701Z" fill="#47AB5D"/>
<path d="M9.26108 20.7822C9.82092 20.2527 10.2495 19.6134 10.5164 18.9101C10.7832 18.2068 10.8816 17.4567 10.8046 16.7135L10.8327 16.7385C10.7541 15.8634 10.8796 14.9826 11.2004 14.1577C11.5212 13.3329 12.0297 12.5839 12.6902 11.963C13.3508 11.3421 14.1474 10.8642 15.0246 10.5629C15.9018 10.2615 16.8384 10.1438 17.769 10.2181L17.7409 10.1931C18.8535 10.2912 19.9712 10.0641 20.9415 9.54281C21.9117 9.02158 22.6873 8.23156 23.1628 7.28052C23.6381 6.32946 23.79 5.26368 23.5977 4.22849C23.4054 3.19329 22.878 2.23909 22.088 1.49601C21.2979 0.752931 20.2831 0.257136 19.1824 0.076248C18.0817 -0.104654 16.9483 0.038173 15.9371 0.485211C14.9258 0.932249 14.0858 1.66176 13.5316 2.57426C12.9772 3.48675 12.7357 4.53782 12.84 5.58412L12.8134 5.55911C12.892 6.43403 12.7665 7.31454 12.4458 8.13916C12.1251 8.96378 11.617 9.71266 10.9568 10.3335C10.2967 10.9544 9.50035 11.4323 8.6235 11.7338C7.74665 12.0353 6.8104 12.1534 5.88007 12.0795L5.90665 12.1045C4.99762 12.0278 4.08271 12.1683 3.24672 12.5126C2.41072 12.857 1.68068 13.3943 1.12426 14.0747C0.567828 14.7549 0.203022 15.5564 0.0636158 16.4046C-0.0757753 17.2529 0.0147543 18.1205 0.326815 18.9271C0.638875 19.7337 1.16239 20.4531 1.84883 21.0187C2.53527 21.5845 3.36243 21.9781 4.25366 22.1631C5.14488 22.348 6.07135 22.3184 6.9472 22.0771C7.82305 21.8357 8.61993 21.3903 9.26402 20.7822H9.26108Z" fill="#47AB5D"/>
</svg>
