<?xml version="1.0"?>
<svg width="16" height="16" xmlns="http://www.w3.org/2000/svg" xmlns:svg="http://www.w3.org/2000/svg" version="1.1">
 <g class="layer">
  <title>Layer 1</title>
  <path d="m9,10l-2,0c0,-2 1.2,-2.6 2,-3c0.3,-0.1 0.5,-0.2 0.7,-0.4c0.1,-0.1 0.3,-0.3 0.1,-0.7c-0.2,-0.5 -0.8,-1 -1.7,-1c-1.4,0 -1.6,1.2 -1.7,1.5l-2,-0.3c0.1,-1.1 1,-3.2 3.6,-3.2c1.6,0 3,0.9 3.6,2.2c0.4,1.1 0.2,2.2 -0.6,3c-0.4,0.4 -0.8,0.6 -1.2,0.7c-0.6,0.4 -0.8,0.2 -0.8,1.2z" fill="#47ab5d" id="svg_1" transform="matrix(1 0 0 1 0 0)"/>
  <path d="m8,1c3.9,0 7,3.1 7,7s-3.1,7 -7,7s-7,-3.1 -7,-7s3.1,-7 7,-7zm0,-1c-4.4,0 -8,3.6 -8,8s3.6,8 8,8s8,-3.6 8,-8s-3.6,-8 -8,-8l0,0z" fill="#47ab5d" id="svg_2" transform="matrix(1 0 0 1 0 0)"/>
  <path d="m6.9,11l2,0l0,2l-2,0l0,-2z" fill="#47ab5d" id="svg_3"/>
 </g>
</svg>